<svg width="28" height="28" viewBox="0 0 28 28" fill="none" xmlns="http://www.w3.org/2000/svg">
<path d="M14 0.5C21.4486 0.5 27.5 6.55137 27.5 14C27.5 21.4486 21.4486 27.5 14 27.5C6.55136 27.5 0.5 21.4486 0.5 14C0.5 6.55137 6.55136 0.5 14 0.5ZM14 0.717773C6.657 0.717773 0.717773 6.65701 0.717773 14C0.717774 21.343 6.657 27.2822 14 27.2822C21.343 27.2822 27.2822 21.343 27.2822 14C27.2822 6.65701 21.343 0.717774 14 0.717773ZM19.5322 7.82617C19.75 7.82622 19.9458 7.85812 20.1191 7.91699L20.2852 7.98438H20.2861C20.8297 8.2445 21.1555 8.81714 21.0801 9.61133C21.0142 10.298 20.6837 12.6312 20.3271 14.9297C20.1494 16.0754 19.9661 17.2063 19.8076 18.1104C19.6861 18.8035 19.5834 19.3371 19.5117 19.6465L19.4512 19.8789C19.3386 20.2245 19.1888 20.6733 18.9277 21.0381C18.6793 21.3852 18.3598 21.6172 17.8848 21.6172C17.3634 21.6171 16.8207 21.4585 16.3037 21.1406L16.084 20.9951H16.083C15.7275 20.7417 13.8777 19.4986 12.8105 18.7891L12.0889 18.3135C11.6213 18.0188 11.3214 17.5458 11.2656 17.0693L11.2568 16.9561C11.2556 16.918 11.2562 16.8792 11.2578 16.8398L11.2949 15.9473L10.5146 16.3818C10.0997 16.6132 9.55058 16.7529 8.99707 16.7529C8.78771 16.7529 8.58444 16.7324 8.39062 16.6934L8.2002 16.6484C7.68318 16.5062 6.88822 16.2681 6.31738 16.085L5.83984 15.9258C5.42945 15.7792 5.16354 15.5932 5.00098 15.3945C4.84428 15.2029 4.75879 14.9692 4.75879 14.668C4.75884 14.247 4.95667 13.9416 5.2627 13.6895C5.50263 13.4918 5.78726 13.3452 6.05469 13.2246L6.31445 13.1123C7.32213 12.6845 15.0824 9.39004 17.5645 8.37207L18.2695 8.08984C18.7828 7.90485 19.192 7.82617 19.5322 7.82617ZM19.5322 8.04297C19.2498 8.04297 18.9473 8.10226 18.6445 8.19336L18.3428 8.29395C17.9209 8.44596 15.0846 9.6367 12.2793 10.8213L6.40039 13.3115C6.11607 13.4324 5.79112 13.578 5.53516 13.7568C5.29528 13.9245 4.97762 14.2181 4.97754 14.668C4.97754 14.9241 5.06229 15.1659 5.26758 15.3623C5.39901 15.488 5.56422 15.5791 5.73828 15.6523L5.91406 15.7207C6.2726 15.8484 7.0234 16.081 7.66797 16.2695L8.25879 16.4375H8.25977C8.50504 16.5049 8.75517 16.5342 8.99707 16.5342C9.48339 16.5342 9.96739 16.4181 10.3389 16.2285L10.4902 16.1426C10.7234 15.9977 12.1355 15.0583 13.5225 14.126C13.7685 13.9606 14.0129 13.7931 14.252 13.6318C13.7178 14.1524 13.1672 14.6907 12.7275 15.1211L11.8975 15.9395C11.492 16.3532 11.3965 16.8362 11.5303 17.2715C11.6359 17.6151 11.8701 17.8854 12.1045 18.0596L12.2041 18.1289H12.2051C12.632 18.3978 15.7437 20.4843 16.209 20.8164V20.8174C16.7513 21.2053 17.3287 21.4003 17.8848 21.4004C18.3647 21.4004 18.6634 21.0717 18.8359 20.79C18.9665 20.5769 19.0708 20.3186 19.1602 20.0635L19.2451 19.8115C19.3228 19.573 19.452 18.8929 19.5986 18.0479C19.7493 17.1793 19.927 16.0806 20.1016 14.96C20.3625 13.2845 20.6176 11.5448 20.7607 10.4482L20.8633 9.5918C20.9159 9.04061 20.7578 8.51352 20.2891 8.23438L20.1914 8.18164C19.9795 8.07923 19.7514 8.04302 19.5322 8.04297Z" fill="#1B33B2" stroke="#1B33B2"/>
</svg>
